<?xml version="1.0" encoding="UTF-8" standalone="no"?><svg xmlns="http://www.w3.org/2000/svg" fill="none" viewBox="0 0 108 32" height="32" width="108">
  <g clip-path="url(#clip0_5597_28521)">
    <path fill="#12100B" d="M104 32H4C1.8 32 0 30.2 0 28V4C0 1.8 1.8 0 4 0H104C106.2 0 108 1.8 108 4V28C108 30.2 106.2 32 104 32Z"></path>
    <path fill="#E33628" d="M16.5759 15.5361L8.05591 24.5761C8.31991 25.5601 9.21591 26.2801 10.2799 26.2801C10.7039 26.2801 11.1039 26.1681 11.4479 25.9601L11.4719 25.9441L21.0559 20.4161L16.5679 15.5281L16.5759 15.5361Z"></path>
    <path fill="#F8BD00" d="M25.1919 14H25.1839L21.0479 11.592L16.3839 15.744L21.0639 20.424L25.1839 18.048C25.9039 17.656 26.3999 16.896 26.3999 16.024C26.3999 15.152 25.9199 14.392 25.1999 14.008"></path>
    <path fill="#587DBD" d="M8.05595 7.42407C8.00795 7.61607 7.97595 7.80807 7.97595 8.01607V23.9921C7.97595 24.2001 7.99995 24.3921 8.05595 24.5841L16.864 15.7761L8.05595 7.42407Z"></path>
    <path fill="#2E9F43" d="M16.6399 16L21.0479 11.592L11.4719 6.04004C11.1279 5.83204 10.7199 5.71204 10.2799 5.71204C9.21591 5.71204 8.31991 6.43204 8.05591 7.41604L16.6399 15.992V16Z"></path>
    <path fill="white" d="M54.512 17.4C52.632 17.4 51.096 18.832 51.096 20.8C51.096 22.768 52.632 24.2 54.512 24.2C56.392 24.2 57.928 22.76 57.928 20.8C57.928 18.84 56.392 17.4 54.512 17.4ZM54.512 22.864C53.48 22.864 52.592 22.016 52.592 20.8C52.592 19.584 53.48 18.736 54.512 18.736C55.544 18.736 56.432 19.576 56.432 20.8C56.432 22.024 55.544 22.864 54.512 22.864ZM47.064 17.4C45.184 17.4 43.648 18.832 43.648 20.8C43.648 22.768 45.184 24.2 47.064 24.2C48.944 24.2 50.48 22.76 50.48 20.8C50.48 18.84 48.944 17.4 47.064 17.4ZM47.064 22.864C46.032 22.864 45.144 22.016 45.144 20.8C45.144 19.584 46.032 18.736 47.064 18.736C48.096 18.736 48.984 19.576 48.984 20.8C48.984 22.024 48.096 22.864 47.064 22.864ZM38.2 18.448V19.888H41.656C41.552 20.704 41.28 21.296 40.872 21.704C40.368 22.208 39.584 22.76 38.208 22.76C36.08 22.76 34.416 21.048 34.416 18.92C34.416 16.792 36.08 15.08 38.208 15.08C39.352 15.08 40.192 15.528 40.808 16.112L41.824 15.096C40.96 14.272 39.816 13.64 38.2 13.64C35.288 13.64 32.84 16.008 32.84 18.92C32.84 21.832 35.288 24.208 38.2 24.208C39.768 24.208 40.96 23.688 41.888 22.728C42.84 21.776 43.136 20.432 43.136 19.352C43.136 19.016 43.112 18.704 43.056 18.448H38.2V18.448ZM74.448 19.568C74.168 18.808 73.304 17.4 71.536 17.4C69.768 17.4 68.328 18.776 68.328 20.8C68.328 22.704 69.768 24.2 71.704 24.2C73.264 24.2 74.168 23.248 74.536 22.696L73.376 21.92C72.992 22.488 72.464 22.864 71.704 22.864C70.944 22.864 70.4 22.52 70.056 21.832L74.608 19.952L74.456 19.568H74.448ZM69.808 20.704C69.768 19.392 70.824 18.72 71.584 18.72C72.176 18.72 72.68 19.016 72.848 19.44L69.808 20.704ZM66.112 24H67.608V14H66.112V24ZM63.664 18.16H63.616C63.28 17.76 62.64 17.4 61.824 17.4C60.12 17.4 58.56 18.896 58.56 20.816C58.56 22.736 60.12 24.208 61.824 24.208C62.64 24.208 63.28 23.848 63.616 23.432H63.664V23.92C63.664 25.224 62.968 25.92 61.848 25.92C60.936 25.92 60.368 25.264 60.136 24.712L58.832 25.256C59.208 26.16 60.2 27.264 61.848 27.264C63.6 27.264 65.08 26.232 65.08 23.72V17.608H63.664V18.16V18.16ZM61.952 22.864C60.92 22.864 60.056 22 60.056 20.816C60.056 19.632 60.92 18.744 61.952 18.744C62.984 18.744 63.768 19.624 63.768 20.816C63.768 22.008 62.968 22.864 61.952 22.864ZM81.456 14H77.88V24H79.368V20.208H81.456C83.112 20.208 84.736 19.008 84.736 17.104C84.736 15.2 83.112 14 81.456 14ZM81.496 18.816H79.376V15.384H81.496C82.616 15.384 83.248 16.312 83.248 17.096C83.248 17.88 82.616 18.808 81.496 18.808M90.72 17.368C89.64 17.368 88.52 17.848 88.056 18.896L89.384 19.448C89.664 18.896 90.192 18.712 90.752 18.712C91.52 18.712 92.312 19.176 92.32 20V20.104C92.048 19.952 91.472 19.72 90.76 19.72C89.328 19.72 87.88 20.504 87.88 21.968C87.88 23.304 89.048 24.168 90.36 24.168C91.368 24.168 91.92 23.72 92.264 23.192H92.312V23.96H93.752V20.128C93.752 18.352 92.424 17.36 90.72 17.36M90.536 22.84C90.048 22.84 89.368 22.592 89.368 21.992C89.368 21.224 90.216 20.928 90.952 20.928C91.608 20.928 91.92 21.072 92.312 21.264C92.2 22.192 91.4 22.848 90.536 22.848M99 17.584L97.288 21.92H97.24L95.464 17.584H93.856L96.52 23.64L95 27.008H96.56L100.664 17.576H99.008L99 17.584ZM85.552 23.984H87.048V13.984H85.552V23.984ZM33.424 5.52002H35.136C35.432 5.52002 35.704 5.58402 35.952 5.71202C36.2 5.84002 36.4 6.02402 36.544 6.25602C36.688 6.48802 36.76 6.75202 36.76 7.04002C36.76 7.32802 36.688 7.59202 36.544 7.82402C36.4 8.05602 36.2 8.24002 35.952 8.36802C35.704 8.49602 35.432 8.56002 35.136 8.56002H34.192V10.496H33.424V5.52002ZM35.16 7.84802C35.416 7.84802 35.624 7.76802 35.776 7.60802C35.928 7.44802 36.008 7.26402 36.008 7.04802C36.008 6.83202 35.928 6.64802 35.776 6.48802C35.624 6.32802 35.416 6.24802 35.16 6.24802H34.192V7.84802H35.16V7.84802ZM38.68 10.272C38.288 10.04 37.976 9.72802 37.752 9.32802C37.528 8.92802 37.416 8.49602 37.416 8.01602C37.416 7.53602 37.528 7.10402 37.752 6.70402C37.976 6.30402 38.288 5.99202 38.68 5.76002C39.072 5.52802 39.512 5.41602 39.992 5.41602C40.472 5.41602 40.912 5.52802 41.304 5.76002C41.696 5.99202 42.008 6.30402 42.232 6.70402C42.456 7.10402 42.568 7.53602 42.568 8.01602C42.568 8.49602 42.456 8.92802 42.232 9.32802C42.008 9.72802 41.696 10.04 41.304 10.272C40.912 10.504 40.472 10.616 39.992 10.616C39.512 10.616 39.072 10.504 38.68 10.272ZM40.912 9.65602C41.192 9.49602 41.408 9.27202 41.568 8.98402C41.728 8.69602 41.808 8.37602 41.808 8.01602C41.808 7.65602 41.728 7.32802 41.568 7.04802C41.408 6.76002 41.192 6.53602 40.912 6.37602C40.632 6.21602 40.328 6.13602 40 6.13602C39.672 6.13602 39.36 6.21602 39.088 6.37602C38.808 6.53602 38.592 6.76002 38.432 7.04802C38.272 7.33602 38.192 7.65602 38.192 8.01602C38.192 8.37602 38.272 8.70402 38.432 8.98402C38.592 9.27202 38.808 9.49602 39.088 9.65602C39.368 9.81602 39.672 9.89602 40 9.89602C40.328 9.89602 40.64 9.81602 40.912 9.65602ZM43.56 5.52802H45.424C45.688 5.52802 45.936 5.58402 46.16 5.70402C46.384 5.82402 46.568 5.97602 46.696 6.18402C46.832 6.38402 46.896 6.60802 46.896 6.85602C46.896 7.10402 46.832 7.32002 46.712 7.49602C46.592 7.68002 46.424 7.81602 46.224 7.92002V7.95202C46.48 8.04002 46.688 8.18402 46.84 8.39202C46.992 8.60002 47.072 8.84002 47.072 9.11202C47.072 9.38402 47 9.63202 46.856 9.84002C46.712 10.048 46.528 10.216 46.288 10.336C46.048 10.456 45.792 10.512 45.504 10.512H43.552V5.52002L43.56 5.52802ZM45.392 7.62402C45.624 7.62402 45.808 7.55202 45.952 7.40802C46.088 7.26402 46.16 7.10402 46.16 6.92002C46.16 6.73602 46.088 6.57602 45.952 6.44002C45.816 6.30402 45.64 6.23202 45.416 6.23202H44.32V7.62402H45.384H45.392ZM45.512 9.80002C45.752 9.80002 45.944 9.72802 46.096 9.58402C46.24 9.44002 46.312 9.26402 46.312 9.05602C46.312 8.84802 46.24 8.67202 46.088 8.52802C45.936 8.37602 45.736 8.30402 45.488 8.30402H44.336V9.80002H45.52H45.512ZM48.08 5.52802H48.848V10.512H48.08V5.52002V5.52802ZM50.104 5.52802H53.128V6.24802H50.872V7.65602H52.904V8.37602H50.872V9.78402H53.128V10.504H50.104V5.52002V5.52802ZM54.2 5.52802H55.944C56.248 5.52802 56.52 5.59202 56.76 5.72002C57 5.84802 57.2 6.03202 57.336 6.26402C57.48 6.49602 57.552 6.76002 57.552 7.04802C57.552 7.38402 57.448 7.68002 57.232 7.93602C57.016 8.19202 56.744 8.36802 56.424 8.45602V8.48802L57.792 10.464V10.504H56.912L55.584 8.55202H54.976V10.504H54.208V5.52002L54.2 5.52802ZM55.928 7.85602C56.168 7.85602 56.376 7.77602 56.536 7.62402C56.704 7.47202 56.784 7.28002 56.784 7.04802C56.784 6.83202 56.712 6.64802 56.56 6.48802C56.408 6.32802 56.208 6.24802 55.96 6.24802H54.968V7.85602H55.928V7.85602ZM58.368 9.73602L60.976 6.25602H58.48V5.53602H61.864V6.31202L59.272 9.79202H61.888V10.512H58.368V9.73602ZM64.104 9.73602L66.712 6.25602H64.216V5.53602H67.6V6.31202L65.008 9.79202H67.624V10.512H64.104V9.73602Z"></path>
  </g>
  <defs>
    <clipPath id="clip0_5597_28521">
      <rect fill="white" height="32" width="108"></rect>
    </clipPath>
  </defs>
</svg>