<?xml version="1.0" encoding="UTF-8" standalone="no"?><svg viewBox="0 0 32 32" fill="none" height="32" width="32" xmlns="http://www.w3.org/2000/svg">
  <path d="M13.82 27.99C12.04 27.99 10.24 27.59 8.56 26.77L6.78 25.9 8.53 24.98A10.19 10.19 0 0 0 14.03 15.93C14.03 12.12 11.97 8.73 8.66 6.94L6.92 6 8.71 5.15C13.54 2.87 19.37 4.08 22.89 8.11 26.81 12.6 26.81 19.37 22.89 23.86A12.015 12.015 0 0 1 13.83 27.97L13.82 27.99ZM11.22 25.65C14.85 26.63 18.82 25.49 21.38 22.57 24.59 18.89 24.59 13.13 21.38 9.45 18.87 6.58 14.95 5.42 11.35 6.34A12.19 12.19 0 0 1 16.03 15.95C16.03 19.74 14.23 23.37 11.22 25.66V25.65Z" fill="#B0B8BC"></path>
</svg>